<svg xmlns="http://www.w3.org/2000/svg" viewBox="0 0 600 600">
  <rect width="600" height="600" fill="#fed7aa"/>
  <!-- Ruled lines -->
  <g stroke="#ea580c" stroke-width="0.8" opacity="0.2">
    <line x1="0" y1="50" x2="600" y2="50"/><line x1="0" y1="80" x2="600" y2="80"/>
    <line x1="0" y1="110" x2="600" y2="110"/><line x1="0" y1="140" x2="600" y2="140"/>
    <line x1="0" y1="170" x2="600" y2="170"/><line x1="0" y1="200" x2="600" y2="200"/>
    <line x1="0" y1="230" x2="600" y2="230"/><line x1="0" y1="260" x2="600" y2="260"/>
    <line x1="0" y1="290" x2="600" y2="290"/><line x1="0" y1="320" x2="600" y2="320"/>
    <line x1="0" y1="350" x2="600" y2="350"/><line x1="0" y1="380" x2="600" y2="380"/>
    <line x1="0" y1="410" x2="600" y2="410"/><line x1="0" y1="440" x2="600" y2="440"/>
    <line x1="0" y1="470" x2="600" y2="470"/><line x1="0" y1="500" x2="600" y2="500"/>
    <line x1="0" y1="530" x2="600" y2="530"/><line x1="0" y1="560" x2="600" y2="560"/>
  </g>
  <line x1="52" y1="0" x2="52" y2="600" stroke="#fb923c" stroke-width="1.5" opacity="0.3"/>
  <!-- Sun doodle top-right -->
  <circle cx="542" cy="48" r="22" fill="#f97316" opacity="0.28"/>
  <g stroke="#f97316" stroke-width="2" opacity="0.3">
    <line x1="542" y1="15" x2="542" y2="8"/><line x1="542" y1="81" x2="542" y2="88"/>
    <line x1="509" y1="48" x2="502" y2="48"/><line x1="575" y1="48" x2="582" y2="48"/>
    <line x1="519" y1="25" x2="514" y2="20"/><line x1="565" y1="71" x2="570" y2="76"/>
    <line x1="565" y1="25" x2="570" y2="20"/><line x1="519" y1="71" x2="514" y2="76"/>
  </g>
  <rect x="200" y="0" width="200" height="18" rx="3" fill="rgba(255,255,255,0.5)"/>
</svg>
