<svg xmlns="http://www.w3.org/2000/svg" viewBox="0 0 600 600">
  <rect width="600" height="600" fill="#fef08a"/>
  <g stroke="#d4b800" stroke-width="0.8" opacity="0.22">
    <line x1="0" y1="50" x2="600" y2="50"/><line x1="0" y1="80" x2="600" y2="80"/>
    <line x1="0" y1="110" x2="600" y2="110"/><line x1="0" y1="140" x2="600" y2="140"/>
    <line x1="0" y1="170" x2="600" y2="170"/><line x1="0" y1="200" x2="600" y2="200"/>
    <line x1="0" y1="230" x2="600" y2="230"/><line x1="0" y1="260" x2="600" y2="260"/>
    <line x1="0" y1="290" x2="600" y2="290"/><line x1="0" y1="320" x2="600" y2="320"/>
    <line x1="0" y1="350" x2="600" y2="350"/><line x1="0" y1="380" x2="600" y2="380"/>
    <line x1="0" y1="410" x2="600" y2="410"/><line x1="0" y1="440" x2="600" y2="440"/>
    <line x1="0" y1="470" x2="600" y2="470"/><line x1="0" y1="500" x2="600" y2="500"/>
    <line x1="0" y1="530" x2="600" y2="530"/><line x1="0" y1="560" x2="600" y2="560"/>
  </g>
  <line x1="52" y1="0" x2="52" y2="600" stroke="#f59e0b" stroke-width="1.5" opacity="0.35"/>
  <circle cx="535" cy="535" r="28" fill="#f59e0b" opacity="0.3"/>
  <g stroke="#f59e0b" stroke-width="2" opacity="0.3">
    <line x1="535" y1="495" x2="535" y2="485"/><line x1="535" y1="575" x2="535" y2="585"/>
    <line x1="495" y1="535" x2="485" y2="535"/><line x1="575" y1="535" x2="585" y2="535"/>
    <line x1="508" y1="508" x2="501" y2="501"/><line x1="562" y1="562" x2="569" y2="569"/>
    <line x1="562" y1="508" x2="569" y2="501"/><line x1="508" y1="562" x2="501" y2="569"/>
  </g>
  <rect x="200" y="0" width="200" height="18" rx="3" fill="rgba(255,255,255,0.55)"/>
</svg>
