<svg xmlns="http://www.w3.org/2000/svg" viewBox="0 0 600 600">
  <rect width="600" height="600" fill="#bbf7d0"/>
  <!-- Grid lines -->
  <g stroke="#16a34a" stroke-width="0.7" opacity="0.2">
    <line x1="0" y1="30" x2="600" y2="30"/><line x1="30" y1="0" x2="30" y2="600"/>
    <line x1="0" y1="60" x2="600" y2="60"/><line x1="60" y1="0" x2="60" y2="600"/>
    <line x1="0" y1="90" x2="600" y2="90"/><line x1="90" y1="0" x2="90" y2="600"/>
    <line x1="0" y1="120" x2="600" y2="120"/><line x1="120" y1="0" x2="120" y2="600"/>
    <line x1="0" y1="150" x2="600" y2="150"/><line x1="150" y1="0" x2="150" y2="600"/>
    <line x1="0" y1="180" x2="600" y2="180"/><line x1="180" y1="0" x2="180" y2="600"/>
    <line x1="0" y1="210" x2="600" y2="210"/><line x1="210" y1="0" x2="210" y2="600"/>
    <line x1="0" y1="240" x2="600" y2="240"/><line x1="240" y1="0" x2="240" y2="600"/>
    <line x1="0" y1="270" x2="600" y2="270"/><line x1="270" y1="0" x2="270" y2="600"/>
    <line x1="0" y1="300" x2="600" y2="300"/><line x1="300" y1="0" x2="300" y2="600"/>
    <line x1="0" y1="330" x2="600" y2="330"/><line x1="330" y1="0" x2="330" y2="600"/>
    <line x1="0" y1="360" x2="600" y2="360"/><line x1="360" y1="0" x2="360" y2="600"/>
    <line x1="0" y1="390" x2="600" y2="390"/><line x1="390" y1="0" x2="390" y2="600"/>
    <line x1="0" y1="420" x2="600" y2="420"/><line x1="420" y1="0" x2="420" y2="600"/>
    <line x1="0" y1="450" x2="600" y2="450"/><line x1="450" y1="0" x2="450" y2="600"/>
    <line x1="0" y1="480" x2="600" y2="480"/><line x1="480" y1="0" x2="480" y2="600"/>
    <line x1="0" y1="510" x2="600" y2="510"/><line x1="510" y1="0" x2="510" y2="600"/>
    <line x1="0" y1="540" x2="600" y2="540"/><line x1="540" y1="0" x2="540" y2="600"/>
    <line x1="0" y1="570" x2="600" y2="570"/><line x1="570" y1="0" x2="570" y2="600"/>
  </g>
  <!-- Leaf doodle top-right -->
  <path d="M510,15 C510,15 590,25 585,90 C580,155 510,140 498,90 C486,40 510,15 510,15Z" fill="#16a34a" opacity="0.28"/>
  <path d="M510,15 L548,110" stroke="#15803d" stroke-width="2" opacity="0.28"/>
  <!-- Second small leaf -->
  <path d="M55,480 C55,480 95,475 92,520 C89,565 55,555 48,520 C41,485 55,480 55,480Z" fill="#16a34a" opacity="0.22"/>
  <rect x="200" y="0" width="200" height="18" rx="3" fill="rgba(255,255,255,0.5)"/>
</svg>
