<svg xmlns="http://www.w3.org/2000/svg" viewBox="0 0 600 600">
  <rect width="600" height="600" fill="#e9d5ff"/>
  <!-- Ruled lines -->
  <g stroke="#7c3aed" stroke-width="0.8" opacity="0.18">
    <line x1="0" y1="50" x2="600" y2="50"/><line x1="0" y1="80" x2="600" y2="80"/>
    <line x1="0" y1="110" x2="600" y2="110"/><line x1="0" y1="140" x2="600" y2="140"/>
    <line x1="0" y1="170" x2="600" y2="170"/><line x1="0" y1="200" x2="600" y2="200"/>
    <line x1="0" y1="230" x2="600" y2="230"/><line x1="0" y1="260" x2="600" y2="260"/>
    <line x1="0" y1="290" x2="600" y2="290"/><line x1="0" y1="320" x2="600" y2="320"/>
    <line x1="0" y1="350" x2="600" y2="350"/><line x1="0" y1="380" x2="600" y2="380"/>
    <line x1="0" y1="410" x2="600" y2="410"/><line x1="0" y1="440" x2="600" y2="440"/>
    <line x1="0" y1="470" x2="600" y2="470"/><line x1="0" y1="500" x2="600" y2="500"/>
    <line x1="0" y1="530" x2="600" y2="530"/><line x1="0" y1="560" x2="600" y2="560"/>
  </g>
  <line x1="52" y1="0" x2="52" y2="600" stroke="#a78bfa" stroke-width="1.5" opacity="0.3"/>
  <!-- Moon + stars doodle top-right -->
  <path d="M565,20 C545,20 530,35 530,55 C530,75 545,90 565,90 C550,82 542,70 542,55 C542,40 550,28 565,20Z" fill="#7c3aed" opacity="0.3"/>
  <circle cx="520" cy="22" r="3" fill="#7c3aed" opacity="0.4"/>
  <circle cx="540" cy="10" r="2" fill="#7c3aed" opacity="0.35"/>
  <circle cx="510" cy="40" r="1.5" fill="#7c3aed" opacity="0.3"/>
  <rect x="200" y="0" width="200" height="18" rx="3" fill="rgba(255,255,255,0.5)"/>
</svg>
