<svg xmlns="http://www.w3.org/2000/svg" viewBox="0 0 600 600" width="600" height="600">
  <rect width="600" height="600" fill="#fca5a5"/>
  <!-- Grid lines -->
  <g stroke="#e07070" stroke-width="0.5" opacity="0.35">
    <line x1="0" y1="40" x2="600" y2="40"/><line x1="0" y1="70" x2="600" y2="70"/>
    <line x1="0" y1="100" x2="600" y2="100"/><line x1="0" y1="130" x2="600" y2="130"/>
    <line x1="0" y1="160" x2="600" y2="160"/><line x1="0" y1="190" x2="600" y2="190"/>
    <line x1="0" y1="220" x2="600" y2="220"/><line x1="0" y1="250" x2="600" y2="250"/>
    <line x1="0" y1="280" x2="600" y2="280"/><line x1="0" y1="310" x2="600" y2="310"/>
    <line x1="0" y1="340" x2="600" y2="340"/><line x1="0" y1="370" x2="600" y2="370"/>
    <line x1="0" y1="400" x2="600" y2="400"/><line x1="0" y1="430" x2="600" y2="430"/>
    <line x1="0" y1="460" x2="600" y2="460"/><line x1="0" y1="490" x2="600" y2="490"/>
    <line x1="0" y1="520" x2="600" y2="520"/><line x1="0" y1="550" x2="600" y2="550"/>
  </g>
  <!-- Lightning bolt top-right -->
  <path d="M535,30 L515,80 L530,80 L505,130 L545,65 L528,65 L545,30 Z" fill="#c0392b" opacity="0.35"/>
  <!-- tape strip top -->
  <rect x="220" y="0" width="160" height="18" rx="3" fill="rgba(255,255,255,0.6)"/>
</svg>
