<svg xmlns="http://www.w3.org/2000/svg" viewBox="0 0 600 600" width="600" height="600">
  <rect width="600" height="600" fill="#d9f99d"/>
  <!-- Grid lines -->
  <g stroke="#84cc16" stroke-width="0.5" opacity="0.3">
    <line x1="0" y1="30" x2="600" y2="30"/><line x1="30" y1="0" x2="30" y2="600"/>
    <line x1="0" y1="60" x2="600" y2="60"/><line x1="60" y1="0" x2="60" y2="600"/>
    <line x1="0" y1="90" x2="600" y2="90"/><line x1="90" y1="0" x2="90" y2="600"/>
    <line x1="0" y1="120" x2="600" y2="120"/><line x1="120" y1="0" x2="120" y2="600"/>
    <line x1="0" y1="150" x2="600" y2="150"/><line x1="150" y1="0" x2="150" y2="600"/>
    <line x1="0" y1="180" x2="600" y2="180"/><line x1="180" y1="0" x2="180" y2="600"/>
    <line x1="0" y1="210" x2="600" y2="210"/><line x1="210" y1="0" x2="210" y2="600"/>
    <line x1="0" y1="240" x2="600" y2="240"/><line x1="240" y1="0" x2="240" y2="600"/>
    <line x1="0" y1="270" x2="600" y2="270"/><line x1="270" y1="0" x2="270" y2="600"/>
    <line x1="0" y1="300" x2="600" y2="300"/><line x1="300" y1="0" x2="300" y2="600"/>
    <line x1="0" y1="330" x2="600" y2="330"/><line x1="330" y1="0" x2="330" y2="600"/>
    <line x1="0" y1="360" x2="600" y2="360"/><line x1="360" y1="0" x2="360" y2="600"/>
    <line x1="0" y1="390" x2="600" y2="390"/><line x1="390" y1="0" x2="390" y2="600"/>
    <line x1="0" y1="420" x2="600" y2="420"/><line x1="420" y1="0" x2="420" y2="600"/>
    <line x1="0" y1="450" x2="600" y2="450"/><line x1="450" y1="0" x2="450" y2="600"/>
    <line x1="0" y1="480" x2="600" y2="480"/><line x1="480" y1="0" x2="480" y2="600"/>
    <line x1="0" y1="510" x2="600" y2="510"/><line x1="510" y1="0" x2="510" y2="600"/>
    <line x1="0" y1="540" x2="600" y2="540"/><line x1="540" y1="0" x2="540" y2="600"/>
    <line x1="0" y1="570" x2="600" y2="570"/><line x1="570" y1="0" x2="570" y2="600"/>
  </g>
  <!-- Leaf top-right -->
  <path d="M520,20 C520,20 580,30 575,80 C570,130 520,120 510,80 C500,40 520,20 520,20Z" fill="#65a30d" opacity="0.5"/>
  <path d="M520,20 L547,100" stroke="#4d7c0f" stroke-width="2" opacity="0.5"/>
  <!-- tape -->
  <rect x="220" y="0" width="160" height="16" rx="3" fill="rgba(255,255,255,0.55)"/>
</svg>
